<svg xmlns="http://www.w3.org/2000/svg" viewBox="0 0 393.86 116.79"><defs><style>.cls-1{fill:#fff;}.cls-2{fill:#ee3086;}</style></defs><title>logo-negativo</title><g id="Capa_2" data-name="Capa 2"><g id="Capa_1-2" data-name="Capa 1"><path class="cls-1" d="M133.88,16.63V12.25c0-7.93,4.7-12.25,13.27-12.25a23.69,23.69,0,0,1,5.55.65V9.22a21.21,21.21,0,0,0-4-.39c-3,0-4.38,1.16-4.38,3.61v4.19h8.38v8.06h-8.38v25.2H133.88V24.69H127V16.63Z"/><path class="cls-1" d="M172.42,16.12c9.93,0,17.41,7.41,17.41,17.21a17.38,17.38,0,0,1-34.75,0A16.92,16.92,0,0,1,172.42,16.12Zm7.22,17.21c0-5-3-8.51-7.22-8.51s-7.15,3.54-7.15,8.51,3,8.38,7.15,8.38S179.64,38.22,179.64,33.33Z"/><path class="cls-1" d="M211.23,16.12c9.93,0,17.4,7.41,17.4,17.21a17.37,17.37,0,0,1-34.74,0A16.92,16.92,0,0,1,211.23,16.12Zm7.22,17.21c0-5-3-8.51-7.22-8.51s-7.15,3.54-7.15,8.51,3,8.38,7.15,8.38S218.45,38.22,218.45,33.33Z"/><path class="cls-1" d="M253.26,50.09a11.67,11.67,0,0,1-9.09-4.26v4.06H233.86V3.8L244.3,2.19v18.7A12.56,12.56,0,0,1,254,16.44c8.19,0,14.7,7.54,14.7,16.89S261.9,50.09,253.26,50.09Zm-9-22.31V38.87a8.54,8.54,0,0,0,6.25,2.64c4.58,0,7.93-3.48,7.93-8.25a7.87,7.87,0,0,0-7.93-8.19A8.07,8.07,0,0,0,244.3,27.78Z"/><path class="cls-1" d="M272.73,40.35c0-6.12,4.77-9.67,13-9.67a21.54,21.54,0,0,1,7.73,1.55V29.52c0-3.22-2.13-4.83-6.57-4.83A24.8,24.8,0,0,0,277.5,27l-3.61-7.29a37,37,0,0,1,15.28-3.6c9.21,0,14.56,4.57,14.56,12.5V49.89H293.42V47a13.24,13.24,0,0,1-9.22,3.42C277.43,50.41,272.73,46.28,272.73,40.35Zm14.7,3.16a11.3,11.3,0,0,0,6-1.68V37.58a25,25,0,0,0-5.74-.71c-3.41,0-5.35,1.16-5.35,3.29S284.2,43.51,287.43,43.51Z"/><path class="cls-1" d="M310.18,16.63h10.45v7.54c2.12-5.54,5.09-8.18,9-8.18a7.13,7.13,0,0,1,3.48.83v9a11.5,11.5,0,0,0-4.9-1,9.17,9.17,0,0,0-7.6,4.13v21H310.18Z"/><path class="cls-1" d="M55.37,77.21H48.92v-8h6.45V59.94l10.44-2.13V69.16H74.7v8H65.81v12.9c0,3,1.16,4,4.38,4a14,14,0,0,0,4.26-.71v8.45a29.12,29.12,0,0,1-7.16,1c-7.86,0-11.92-3.61-11.92-10.7Z"/><path class="cls-1" d="M95.14,103.06A17.19,17.19,0,0,1,77.61,85.85c0-9.8,7.22-17.27,16.76-17.27s16.37,7.28,16.37,17.66V88.5H87.86a8,8,0,0,0,7.79,6.25A8.24,8.24,0,0,0,102.23,92l6.9,5.73A19.36,19.36,0,0,1,95.14,103.06Zm-7.28-20.5h13.21c-.84-3.6-3.42-5.86-6.77-5.86S88.69,78.89,87.86,82.56Z"/><path class="cls-1" d="M139.23,90.75l6.19,6.12a17.5,17.5,0,0,1-13.54,6.19,17.21,17.21,0,1,1,0-34.42,18,18,0,0,1,13.86,6.13l-6.38,6.38c-2.13-2.52-4.25-3.61-7.09-3.61-4.13,0-7.22,3.54-7.22,8.31S128.21,94,132.53,94A8,8,0,0,0,139.23,90.75Z"/><path class="cls-1" d="M149.48,56.33l10.44-1.61V74.57a12.27,12.27,0,0,1,10.51-5.93c6.45,0,11,4.71,11,11.35v22.43H171V83c0-3.74-2.19-6.19-5.54-6.19a6.73,6.73,0,0,0-5.55,2.77v22.82H149.48Z"/><path class="cls-1" d="M187.9,69.16h10.44v5.41a12.27,12.27,0,0,1,10.51-5.93c6.45,0,11,4.71,11,11.35v22.43H209.43V83c0-3.74-2.19-6.19-5.54-6.19a6.73,6.73,0,0,0-5.55,2.77v22.82H187.9Z"/><path class="cls-1" d="M242.18,68.64c9.93,0,17.4,7.41,17.4,17.21a17.37,17.37,0,1,1-17.4-17.21Zm7.22,17.21c0-5-3-8.51-7.22-8.51S235,80.89,235,85.85s3,8.38,7.15,8.38S249.4,90.75,249.4,85.85Z"/><path class="cls-1" d="M275.25,102.42H264.81V56.33l10.44-1.61Z"/><path class="cls-1" d="M297.81,68.64c9.93,0,17.41,7.41,17.41,17.21a17.38,17.38,0,1,1-17.41-17.21ZM305,85.85c0-5-3-8.51-7.22-8.51s-7.15,3.55-7.15,8.51,3,8.38,7.15,8.38S305,90.75,305,85.85Z"/><path class="cls-1" d="M319.28,85.59c0-9.28,6.83-16.63,15.47-16.63a11.58,11.58,0,0,1,9,4.19v-4H354v33.71c0,9-6.19,13.92-17.53,13.92a31.94,31.94,0,0,1-13.8-3l3.23-7.54a23.51,23.51,0,0,0,10.18,2.57c5,0,7.54-2.06,7.54-6.12V98a12.46,12.46,0,0,1-9.67,4.38C325.79,102.35,319.28,94.88,319.28,85.59Zm18.18,8.26a8.08,8.08,0,0,0,6.18-2.65V80.12a8.44,8.44,0,0,0-6.18-2.58,7.77,7.77,0,0,0-7.93,8.12A7.87,7.87,0,0,0,337.46,93.85Z"/><path class="cls-1" d="M369,103.06,356.8,69.16h11.54L375,90.62l7.61-21.46h11.28l-14.95,37.13c-3.1,7.6-6.9,10.37-14.57,10.37a21.37,21.37,0,0,1-4.32-.51v-8.77a21.87,21.87,0,0,0,3.09.26c2.84,0,4.58-1.1,5.42-3.35Z"/><path class="cls-2" d="M45.35.06H65.51L20.27,102.83H0Z"/><path class="cls-2" d="M99.7,32.55l.22,12h-11l.22-12-10.6,6.88-6-9.82,11.62-7.1L72.28,15.06l6.1-9.59,10.71,7L88.87.06h11L99.7,12.58l10.72-7.11,6.2,9.59-11.85,7.45,11.62,7.1-6.2,9.82Z"/></g></g></svg>